<?xml version="1.0" encoding="UTF-8" standalone="no"?>
<!-- Created with Inkscape (http://www.inkscape.org/) -->

<svg
   width="120"
   height="120"
   viewBox="0 0 120 120"
   version="1.1"
   id="svg5"
   inkscape:version="1.2 (dc2aedaf03, 2022-05-15)"
   sodipodi:docname="Droplet.svg"
   xmlns:inkscape="http://www.inkscape.org/namespaces/inkscape"
   xmlns:sodipodi="http://sodipodi.sourceforge.net/DTD/sodipodi-0.dtd"
   xmlns="http://www.w3.org/2000/svg"
   xmlns:svg="http://www.w3.org/2000/svg">
  <sodipodi:namedview
     id="namedview7"
     pagecolor="#ffffff"
     bordercolor="#000000"
     borderopacity="0.25"
     inkscape:showpageshadow="2"
     inkscape:pageopacity="0.0"
     inkscape:pagecheckerboard="0"
     inkscape:deskcolor="#d1d1d1"
     inkscape:document-units="px"
     showgrid="false"
     inkscape:zoom="2"
     inkscape:cx="289.25"
     inkscape:cy="94"
     inkscape:window-width="1920"
     inkscape:window-height="1009"
     inkscape:window-x="-8"
     inkscape:window-y="-8"
     inkscape:window-maximized="1"
     inkscape:current-layer="layer1" />
  <defs
     id="defs2">
    <pattern
       id="EMFhbasepattern"
       patternUnits="userSpaceOnUse"
       width="6"
       height="6"
       x="0"
       y="0" />
  </defs>
  <g
     inkscape:label="Layer 1"
     inkscape:groupmode="layer"
     id="layer1">
    <g
       id="g951"
       transform="translate(147.87966,-0.25)">
      <path
         id="path486"
         style="fill:#000000;stroke-width:1.66428"
         d="M 55.569461,0.4627286 C 50.233716,24.069551 35.301156,41.927364 27.250723,58.182655 13.383351,86.183399 24.10883,120.48787 57.435284,120.45659 93.278128,120.42298 101.54553,85.871292 87.275273,56.619143 78.300383,38.221804 61.545853,23.029836 55.569461,0.4627286 Z M 55.696229,17.043759 C 60.46096,35.035578 73.817165,47.149322 80.972466,61.816764 92.34956,85.138298 85.761012,112.68375 57.184993,112.71054 30.615179,112.73547 22.065312,85.385572 33.1212,63.061723 39.539492,50.102061 51.442266,35.864506 55.696229,17.043759 Z" />
      <path
         style="fill:#000000;stroke-width:1.66428"
         d="m 57.031447,108.76956 c 0,0 -9.482562,-4.8861 -13.49201,-8.32997 -3.876206,-3.329426 -9.929155,-11.679128 -9.929155,-11.679128 0,0 2.942961,11.203074 7.061769,14.793898 4.314194,3.76117 16.359396,5.2152 16.359396,5.2152 z"
         id="path564"
         sodipodi:nodetypes="cacac" />
      <path
         style="fill:#000000;fill-opacity:1;stroke-width:1.66428"
         d="m 63.575558,55.894271 c -0.132242,-0.09918 3.100338,0.244905 4.784802,-0.208035 1.34767,-0.362379 3.744628,5.200872 3.744628,5.200872 l -5.616942,0.208035 z"
         id="path879"
         sodipodi:nodetypes="csccc" />
    </g>
    <g
       id="g561"
       transform="matrix(1.0688955,0,0,1.0688955,-40.83812,0.01254862)">
      <path
         id="path486-1-3"
         style="fill:#000000;stroke-width:0.481915"
         d="m 341.27251,2.7414386 c -3.74208,5.7781048 -5.90829,4.5793813 -8.20186,9.3633464 -3.95083,8.240677 -0.89513,18.336556 8.59962,18.327349 10.21167,-0.0099 12.56706,-10.178525 8.50145,-18.787494 -2.55696,-5.4143738 -4.62378,-3.0802574 -8.89921,-8.9032014 z m 0.0699,4.1251202 c 2.99713,2.031079 4.99509,1.9910945 7.03364,6.3077522 3.24135,6.863576 1.36427,14.970257 -6.77708,14.978142 -7.56977,0.0074 -10.00564,-8.041793 -6.8558,-14.611748 1.82858,-3.8140551 3.29673,-3.9313384 6.59924,-6.6741462 z"
         sodipodi:nodetypes="csssccsssc" />
      <path
         id="path486-1-3-1"
         style="fill:#000000;stroke-width:0.359462"
         d="m 351.41109,93.233382 c -2.45724,1.744157 -4.43376,2.379254 -6.20032,5.834958 -3.04303,5.95267 -0.68945,13.24544 6.62362,13.23879 7.86527,-0.007 9.85992,-7.44668 6.54802,-13.57117 -1.73554,-3.209428 -3.78878,-4.213341 -6.97132,-5.502578 z m 10e-5,2.304268 c 2.60554,1.103661 4.01801,1.18512 5.58815,4.30327 2.49657,4.95791 1.0508,10.81379 -5.21986,10.81948 -5.83042,0.005 -7.70658,-5.809 -5.2805,-10.55482 1.40842,-2.75509 2.40486,-3.171106 4.91221,-4.56793 z"
         sodipodi:nodetypes="csssccsssc" />
      <g
         id="g532"
         transform="translate(-3.5,-31.75)">
        <path
           id="path486-1"
           style="fill:#000000;stroke-width:0.885779"
           d="m 324.42757,57.665671 c -2.83984,12.564246 -11.03739,13.5687 -15.32206,22.220244 -7.38063,14.902821 -1.67221,33.160675 16.06511,33.144025 19.07662,-0.0179 23.47677,-18.407316 15.88172,-33.976172 -4.7767,-9.791605 -13.44395,-9.377218 -16.62477,-21.388097 z m 0.5675,9.574912 c 6.03593,8.325776 8.8945,6.773068 12.70276,14.579512 6.05523,12.412408 2.54861,27.072905 -12.66039,27.087165 -14.14124,0.0133 -18.69173,-14.543151 -12.80746,-26.424561 3.416,-6.897514 7.25101,-6.47516 12.76509,-15.242116 z"
           sodipodi:nodetypes="csssccsssc" />
        <path
           style="fill:#000000;stroke-width:0.885779"
           d="m 324.95569,106.80976 c 0,0 -5.0469,-2.60053 -7.18085,-4.43346 -2.06303,-1.77202 -5.28459,-6.215975 -5.28459,-6.215975 0,0 1.56633,5.962605 3.75848,7.873745 2.29614,2.00181 8.70696,2.77569 8.70696,2.77569 z"
           id="path564-8"
           sodipodi:nodetypes="cacac" />
      </g>
    </g>
    <path
       id="path486-7"
       style="fill:#000000;stroke-width:1.66428"
       d="M 59.267702,0.1152135 C 53.93194,23.722009 38.9994,41.579864 30.94895,57.835138 17.08159,85.835861 27.80709,120.1436 61.133508,120.11233 96.976318,120.07873 105.24049,85.523748 90.970268,56.271626 81.995361,37.874305 65.244061,22.682296 59.267702,0.1152135 Z m 12.93391,55.0772325 c 0.857087,-0.319976 3.601616,5.350396 3.601616,5.350396 l -5.616941,0.208034 -2.912488,-5.200871 c 2.031784,-0.284777 3.003797,0.183981 4.927813,-0.357559 z M 37.30702,88.416264 c 0,0 6.0542,8.34979 9.93041,11.679206 4.00945,3.44387 13.493006,8.3279 13.493006,8.3279 0,0 -12.045816,-1.45274 -16.359976,-5.21388 -4.11881,-3.590822 -7.06344,-14.793226 -7.06344,-14.793226 z"
       sodipodi:nodetypes="cccccccccccscsc" />
  </g>
</svg>
