<?xml version="1.0" encoding="UTF-8" standalone="no"?>
<!-- Created with Inkscape (http://www.inkscape.org/) -->

<svg
   width="120"
   height="120"
   viewBox="0 0 120 120"
   version="1.1"
   id="svg5"
   inkscape:version="1.2 (dc2aedaf03, 2022-05-15)"
   sodipodi:docname="Master.svg"
   xmlns:inkscape="http://www.inkscape.org/namespaces/inkscape"
   xmlns:sodipodi="http://sodipodi.sourceforge.net/DTD/sodipodi-0.dtd"
   xmlns="http://www.w3.org/2000/svg"
   xmlns:svg="http://www.w3.org/2000/svg">
  <sodipodi:namedview
     id="namedview7"
     pagecolor="#ffffff"
     bordercolor="#000000"
     borderopacity="0.25"
     inkscape:showpageshadow="2"
     inkscape:pageopacity="0.0"
     inkscape:pagecheckerboard="0"
     inkscape:deskcolor="#d1d1d1"
     inkscape:document-units="px"
     showgrid="false"
     inkscape:zoom="2.8284271"
     inkscape:cx="323.67813"
     inkscape:cy="112.07642"
     inkscape:window-width="1920"
     inkscape:window-height="1009"
     inkscape:window-x="-8"
     inkscape:window-y="-8"
     inkscape:window-maximized="1"
     inkscape:current-layer="layer1" />
  <defs
     id="defs2">
    <pattern
       id="EMFhbasepattern"
       patternUnits="userSpaceOnUse"
       width="6"
       height="6"
       x="0"
       y="0" />
  </defs>
  <g
     inkscape:label="Layer 1"
     inkscape:groupmode="layer"
     id="layer1">
    <g
       id="g951"
       transform="translate(147.87966,-0.25)">
      <path
         id="path486"
         style="fill:#000000;stroke-width:1.66428"
         d="M 55.569461,0.4627286 C 50.233716,24.069551 35.301156,41.927364 27.250723,58.182655 13.383351,86.183399 24.10883,120.48787 57.435284,120.45659 93.278128,120.42298 101.54553,85.871292 87.275273,56.619143 78.300383,38.221804 61.545853,23.029836 55.569461,0.4627286 Z M 55.696229,17.043759 C 60.46096,35.035578 73.817165,47.149322 80.972466,61.816764 92.34956,85.138298 85.761012,112.68375 57.184993,112.71054 30.615179,112.73547 22.065312,85.385572 33.1212,63.061723 39.539492,50.102061 51.442266,35.864506 55.696229,17.043759 Z" />
      <path
         style="fill:#000000;stroke-width:1.66428"
         d="m 57.031447,108.76956 c 0,0 -9.482562,-4.8861 -13.49201,-8.32997 -3.876206,-3.329426 -9.929155,-11.679128 -9.929155,-11.679128 0,0 2.942961,11.203074 7.061769,14.793898 4.314194,3.76117 16.359396,5.2152 16.359396,5.2152 z"
         id="path564"
         sodipodi:nodetypes="cacac" />
      <path
         style="fill:#000000;fill-opacity:1;stroke-width:1.66428"
         d="m 63.575558,55.894271 c -0.132242,-0.09918 3.100338,0.244905 4.784802,-0.208035 1.34767,-0.362379 3.744628,5.200872 3.744628,5.200872 l -5.616942,0.208035 z"
         id="path879"
         sodipodi:nodetypes="csccc" />
    </g>
    <g
       id="g877">
      <path
         id="path486-1-3"
         style="fill:#000000;stroke-width:0.515117"
         d="M 323.94727 2.9433594 C 319.94738 9.1195434 317.63128 7.8376181 315.17969 12.951172 C 310.95666 21.759585 314.22221 32.550857 324.37109 32.541016 C 335.28629 32.530436 337.80469 21.661063 333.45898 12.458984 C 330.72586 6.6715903 328.51725 9.1674718 323.94727 2.9433594 z M 324.08008 9.9511719 C 326.8659 13.745317 328.21282 12.224026 329.87891 15.751953 C 332.52799 21.36143 330.99362 27.987741 324.33984 27.994141 C 318.1532 28.00014 316.16203 21.422237 318.73633 16.052734 C 320.2308 12.935573 321.6418 13.716099 324.08008 9.9511719 z " />
      <path
         id="path486-1-3-1"
         style="fill:#000000;stroke-width:0.384227"
         d="M 334.7832 99.669922 C 332.15668 101.53424 330.04452 102.21246 328.15625 105.90625 C 324.90357 112.26902 327.41943 120.06375 335.23633 120.05664 C 343.64347 120.04964 345.77444 112.09721 342.23438 105.55078 C 340.37926 102.12024 338.18501 101.04798 334.7832 99.669922 z M 334.98047 104.62305 C 336.86113 105.3849 338.07402 105.97846 339.09961 107.875 C 341.05671 111.49414 339.87827 115.89053 335.23047 115.89453 C 330.90895 115.89846 329.5182 111.58792 331.31641 108.07031 C 332.36032 106.02823 333.52842 105.65372 334.98047 104.62305 z " />
      <g
         id="g868">
        <path
           id="path486-1"
           style="fill:#000000;stroke-width:0.946805"
           d="M 302.19922 27.712891 C 299.16372 41.142743 290.40213 42.217257 285.82227 51.464844 C 277.93315 67.394386 284.03482 86.910375 302.99414 86.892578 C 323.38503 86.873448 328.08901 67.217635 319.9707 50.576172 C 314.86491 40.109979 305.59918 40.551253 302.19922 27.712891 z M 302.43945 37.599609 C 304.93339 47.016801 311.72941 46.690029 315.47461 54.367188 C 321.42955 66.574029 317.97861 80.993773 303.02148 81.007812 C 289.11446 81.020867 284.63897 66.706117 290.42578 55.021484 C 293.78522 48.238197 300.21286 47.450671 302.43945 37.599609 z " />
        <path
           style="fill:#000000;stroke-width:0.946805"
           d="m 303.38942,79.868588 c 0,0 -5.39461,-2.779695 -7.67558,-4.738906 -2.20516,-1.894104 -5.64867,-6.644227 -5.64867,-6.644227 0,0 1.67424,6.373401 4.01742,8.41621 2.45433,2.139726 9.30683,2.966923 9.30683,2.966923 z"
           id="path564-8"
           sodipodi:nodetypes="cacac" />
      </g>
    </g>
    <path
       id="path486-7"
       style="fill:#000000;stroke-width:1.66428"
       d="M 59.267702,0.1152135 C 53.93194,23.722009 38.9994,41.579864 30.94895,57.835138 17.08159,85.835861 27.80709,120.1436 61.133508,120.11233 96.976318,120.07873 105.24049,85.523748 90.970268,56.271626 81.995361,37.874305 65.244061,22.682296 59.267702,0.1152135 Z m 12.93391,55.0772325 c 0.857087,-0.319976 3.601616,5.350396 3.601616,5.350396 l -5.616941,0.208034 -2.912488,-5.200871 c 2.031784,-0.284777 3.003797,0.183981 4.927813,-0.357559 z M 37.30702,88.416264 c 0,0 6.0542,8.34979 9.93041,11.679206 4.00945,3.44387 13.493006,8.3279 13.493006,8.3279 0,0 -12.045816,-1.45274 -16.359976,-5.21388 -4.11881,-3.590822 -7.06344,-14.793226 -7.06344,-14.793226 z"
       sodipodi:nodetypes="cccccccccccscsc" />
  </g>
</svg>
